# xmcd
#
# Track frame offsets:
#	150
#	20495
#	36790
#	52017
#	67700
#	82607
#	96542
#	110145
#	128757
#	146905
#	162457
#	177880
#	191512
#	204552
#	224682
#	239492
#	251375
#	265740
#	281767
#	299632
#
# Disc length: 4259 seconds
#
# Revision: 1
# Processed by: cddbd v1.5.1PL0 Copyright (c) Steve Scherf et al.
# Submitted via: audiograbber 1.83.01
#
DISCID=3710a114
DTITLE=Varous - RC20
DYEAR=1993
DGENRE=Country
TTITLE0=Garth Brooks - Ain't Going Down (Til The Sun Comes Up)
TTITLE1=Aaron Tippin - Working Man's PHD
TTITLE2=Confederate Railroad - Trashy Women
TTITLE3=Wynonna - Only Love
TTITLE4=Steve Wariner - If I Didn't Love You
TTITLE5=Vince Gill - One More Last Chance
TTITLE6=Toby Keith - He Ain't Worth Missing
TTITLE7=Clint Black - No Time To Kill
TTITLE8=Brooks and Dunn - She Used To Be Mine
TTITLE9=Suzy Bogguss - Just Like The Weather
TTITLE10=Joe Diffie - Prop Me Up Beside The Jukebox (If I Die)
TTITLE11=George Strait - Easy Come Easy Go
TTITLE12=Clay Walker - What's It To You
TTITLE13=Reba McEntire ft. Davis - Does He Love You
TTITLE14=Alabama - Reckless
TTITLE15=Tracy Byrd - Holdin' Heaven
TTITLE16=Travis Tritt - Looking Out For Number One
TTITLE17=Brother Phelps - Let Go
TTITLE18=Mark Chesnutt - Almost Goodbye
TTITLE19=Dwight Yoakam - A Thousand Miles From Nowhere
EXTD=
EXTT0=
EXTT1=
EXTT2=
EXTT3=
EXTT4=
EXTT5=
EXTT6=
EXTT7=
EXTT8=
EXTT9=
EXTT10=
EXTT11=
EXTT12=
EXTT13=
EXTT14=
EXTT15=
EXTT16=
EXTT17=
EXTT18=
EXTT19=
PLAYORDER=
